<svg width="220" height="96" viewBox="0 0 220 96" fill="none" xmlns="http://www.w3.org/2000/svg">
<path d="M3.26765 22.0789V16.793H40.1729V22.0789H24.6996V66H18.7409V22.0789H3.26765ZM44.768 66V29.0948H50.2461V34.669H50.6305C51.3033 32.843 52.5207 31.3613 54.2826 30.224C56.0446 29.0868 58.0308 28.5181 60.2413 28.5181C60.6577 28.5181 61.1783 28.5261 61.803 28.5422C62.4277 28.5582 62.9003 28.5822 63.2206 28.6142V34.3807C63.0284 34.3326 62.5879 34.2605 61.8991 34.1644C61.2264 34.0523 60.5136 33.9963 59.7607 33.9963C57.9667 33.9963 56.365 34.3727 54.9554 35.1255C53.5618 35.8623 52.4566 36.8875 51.6397 38.2009C50.8388 39.4984 50.4383 40.9801 50.4383 42.6459V66H44.768ZM69.9421 66V29.0948H75.6124V66H69.9421ZM72.8253 22.9439C71.7201 22.9439 70.767 22.5675 69.9661 21.8146C69.1813 21.0618 68.7888 20.1568 68.7888 19.0996C68.7888 18.0424 69.1813 17.1374 69.9661 16.3846C70.767 15.6317 71.7201 15.2553 72.8253 15.2553C73.9306 15.2553 74.8756 15.6317 75.6605 16.3846C76.4614 17.1374 76.8618 18.0424 76.8618 19.0996C76.8618 20.1568 76.4614 21.0618 75.6605 21.8146C74.8756 22.5675 73.9306 22.9439 72.8253 22.9439ZM91.6684 43.7992V66H85.9981V29.0948H91.4762V34.8612H91.9567C92.8217 32.9871 94.1351 31.4814 95.8971 30.3442C97.6591 29.1909 99.9336 28.6142 102.721 28.6142C105.22 28.6142 107.406 29.1268 109.28 30.152C111.154 31.1611 112.612 32.6988 113.653 34.7651C114.694 36.8154 115.215 39.4103 115.215 42.5498V66H109.544V42.9342C109.544 40.035 108.792 37.7765 107.286 36.1587C105.78 34.5248 103.714 33.7079 101.087 33.7079C99.2769 33.7079 97.6591 34.1004 96.2335 34.8852C94.8239 35.6701 93.7107 36.8154 92.8938 38.3211C92.0768 39.8268 91.6684 41.6528 91.6684 43.7992ZM125.576 66V29.0948H131.247V66H125.576ZM128.459 22.9439C127.354 22.9439 126.401 22.5675 125.6 21.8146C124.815 21.0618 124.423 20.1568 124.423 19.0996C124.423 18.0424 124.815 17.1374 125.6 16.3846C126.401 15.6317 127.354 15.2553 128.459 15.2553C129.565 15.2553 130.51 15.6317 131.295 16.3846C132.096 17.1374 132.496 18.0424 132.496 19.0996C132.496 20.1568 132.096 21.0618 131.295 21.8146C130.51 22.5675 129.565 22.9439 128.459 22.9439ZM157.682 29.0948V33.9001H138.557V29.0948H157.682ZM144.131 20.2529H149.801V55.4282C149.801 57.03 150.034 58.2313 150.498 59.0322C150.979 59.8171 151.587 60.3457 152.324 60.618C153.077 60.8743 153.87 61.0024 154.703 61.0024C155.327 61.0024 155.84 60.9704 156.241 60.9063C156.641 60.8262 156.961 60.7621 157.202 60.7141L158.355 65.8078C157.97 65.9519 157.434 66.0961 156.745 66.2403C156.056 66.4004 155.183 66.4805 154.126 66.4805C152.524 66.4805 150.955 66.1362 149.417 65.4474C147.895 64.7586 146.63 63.7094 145.621 62.2999C144.628 60.8903 144.131 59.1123 144.131 56.9659V20.2529ZM169.864 79.8395C168.903 79.8395 168.046 79.7594 167.293 79.5992C166.54 79.455 166.019 79.3109 165.731 79.1667L167.173 74.1691C168.55 74.5215 169.768 74.6497 170.825 74.5536C171.882 74.4574 172.819 73.9849 173.636 73.136C174.469 72.303 175.23 70.9495 175.918 69.0754L176.976 66.1922L163.328 29.0948H169.479L179.667 58.5036H180.051L190.238 29.0948H196.389L180.724 71.382C180.019 73.2881 179.146 74.8659 178.105 76.1153C177.064 77.3807 175.854 78.3178 174.477 78.9264C173.115 79.5351 171.578 79.8395 169.864 79.8395Z" fill="white"/>
<rect x="140" y="85" width="79.3358" height="4.7674" fill="#FFC300"/>
</svg>
